<svg xmlns="http://www.w3.org/2000/svg" viewBox="0 0 600 600" preserveAspectRatio="none">

<path d="M533 60.5c61.7 60.1 87.1 170.1 49.1 226.7-38.2 56.6-139.8 60-204.4 77.5s-92 49.1-159.9 61.9c-67.7 13-175.7 7.1-207.4-46.6-31.7-53.6 13.1-155.1 69.9-229.9C137.3 75.4 206 27.2 289.5 8.5 373-10.4 471.2.3 533 60.5zM508.8 599.9c-74.2 3.1-175.9-109-152.6-168.3 23.3-59.2 171.6-65.4 222.5-9.3 50.8 56 4.2 174.6-69.9 177.6zM81.8 68.6c-13.3 23.1-65.6 23.8-78.5.9C-9.5 46.6 17.2.3 43.3 0c26.2-.3 51.9 45.4 38.5 68.6z"></path>

</svg>