<svg xmlns="http://www.w3.org/2000/svg" xmlns:xlink="http://www.w3.org/1999/xlink" viewBox="0 0 2647.27 1952.2"><defs><style>.cls-1,.cls-11,.cls-12,.cls-14,.cls-16,.cls-19,.cls-20,.cls-21,.cls-22,.cls-23,.cls-27,.cls-28,.cls-3,.cls-33,.cls-34,.cls-36,.cls-5,.cls-6,.cls-7,.cls-8,.cls-9{stroke:#000;}.cls-1,.cls-10,.cls-11,.cls-12,.cls-13,.cls-14,.cls-16,.cls-18,.cls-19,.cls-2,.cls-20,.cls-21,.cls-22,.cls-23,.cls-24,.cls-25,.cls-26,.cls-27,.cls-28,.cls-3,.cls-30,.cls-31,.cls-32,.cls-33,.cls-34,.cls-35,.cls-36,.cls-4,.cls-5,.cls-6,.cls-7,.cls-8,.cls-9{stroke-miterlimit:10;}.cls-1,.cls-16,.cls-32,.cls-33,.cls-35,.cls-6{stroke-width:5px;}.cls-1{opacity:0.72;}.cls-2,.cls-29,.cls-3,.cls-32,.cls-33,.cls-35{fill:#fff;}.cls-2,.cls-32,.cls-4{stroke:#fff;}.cls-18,.cls-2,.cls-31,.cls-4,.cls-5,.cls-7,.cls-8{stroke-width:4px;}.cls-12,.cls-14,.cls-19,.cls-20,.cls-21,.cls-22,.cls-23,.cls-3{stroke-width:8px;}.cls-10,.cls-13,.cls-18,.cls-19,.cls-20,.cls-27,.cls-28,.cls-30,.cls-4,.cls-8,.cls-9{fill:none;}.cls-11,.cls-12,.cls-17,.cls-24,.cls-25,.cls-26,.cls-31,.cls-5{fill:#016878;}.cls-6{fill:url(#Gradient_bez_nazwy_17);}.cls-15,.cls-36,.cls-7{fill:#d3b467;}.cls-25,.cls-26,.cls-9{stroke-width:3px;}.cls-10,.cls-13{stroke:#d3b467;}.cls-10{stroke-width:6px;}.cls-13,.cls-30{stroke-width:20px;}.cls-14{fill:url(#Gradient_bez_nazwy_40);}.cls-16{fill:#d8d8d8;}.cls-18,.cls-24,.cls-25,.cls-26,.cls-30,.cls-31,.cls-35{stroke:#016878;}.cls-20,.cls-26,.cls-28{stroke-linecap:round;}.cls-21{fill:url(#Gradient_bez_nazwy_8);}.cls-22{fill:url(#Gradient_bez_nazwy_18);}.cls-23{fill:url(#Gradient_bez_nazwy_9);}.cls-24,.cls-36{stroke-width:2px;}.cls-27,.cls-28{stroke-width:7px;}.cls-34{fill:url(#Gradient_bez_nazwy_28);}.cls-37{fill:url(#Gradient_bez_nazwy_13);}</style><linearGradient id="Gradient_bez_nazwy_17" x1="1113.06" y1="1058.92" x2="1511.51" y2="1058.92" gradientUnits="userSpaceOnUse"><stop offset="0" stop-color="#d3b467"/><stop offset="0.16" stop-color="#a48c50"/><stop offset="0.38" stop-color="#6a5a34"/><stop offset="0.58" stop-color="#3c331d"/><stop offset="0.75" stop-color="#1b170d"/><stop offset="0.9" stop-color="#070604"/><stop offset="1"/></linearGradient><linearGradient id="Gradient_bez_nazwy_40" x1="1079.43" y1="807.3" x2="1545.41" y2="807.3" gradientUnits="userSpaceOnUse"><stop offset="0" stop-color="#016878"/><stop offset="0.35" stop-color="#026676"/><stop offset="0.53" stop-color="#04606e"/><stop offset="0.68" stop-color="#075561"/><stop offset="0.8" stop-color="#0c454e"/><stop offset="0.91" stop-color="#133135"/><stop offset="1" stop-color="#1a1a1a"/></linearGradient><linearGradient id="Gradient_bez_nazwy_8" x1="1288.69" y1="484.45" x2="1568.07" y2="484.45" gradientUnits="userSpaceOnUse"><stop offset="0" stop-color="#fff"/><stop offset="0.09" stop-color="#f9f9f9"/><stop offset="0.22" stop-color="#e8e8e8"/><stop offset="0.36" stop-color="#cdcdcd"/><stop offset="0.52" stop-color="#a6a6a6"/><stop offset="0.68" stop-color="#757575"/><stop offset="0.85" stop-color="#393939"/><stop offset="1"/></linearGradient><linearGradient id="Gradient_bez_nazwy_18" x1="1911.09" y1="578.13" x2="2022.47" y2="578.13" gradientUnits="userSpaceOnUse"><stop offset="0" stop-color="#fff"/><stop offset="0.05" stop-color="#ebebeb"/><stop offset="0.26" stop-color="#a5a5a5"/><stop offset="0.45" stop-color="#6a6a6a"/><stop offset="0.63" stop-color="#3c3c3c"/><stop offset="0.78" stop-color="#1b1b1b"/><stop offset="0.91" stop-color="#070707"/><stop offset="1"/></linearGradient><linearGradient id="Gradient_bez_nazwy_9" x1="1537.88" y1="453.53" x2="1759.69" y2="453.53" gradientUnits="userSpaceOnUse"><stop offset="0" stop-color="#fff"/><stop offset="0.09" stop-color="#f8f8f8"/><stop offset="0.22" stop-color="#e5e5e5"/><stop offset="0.37" stop-color="#c6c6c6"/><stop offset="0.54" stop-color="#9b9b9b"/><stop offset="0.72" stop-color="#636363"/><stop offset="0.91" stop-color="#202020"/><stop offset="1"/></linearGradient><linearGradient id="Gradient_bez_nazwy_28" x1="484.13" y1="642.26" x2="767.58" y2="642.26" gradientUnits="userSpaceOnUse"><stop offset="0" stop-color="#016878"/><stop offset="0.28" stop-color="#036979"/><stop offset="0.41" stop-color="#0b6e7d"/><stop offset="0.52" stop-color="#187684"/><stop offset="0.61" stop-color="#2b818e"/><stop offset="0.69" stop-color="#438f9b"/><stop offset="0.77" stop-color="#61a1ab"/><stop offset="0.84" stop-color="#85b6be"/><stop offset="0.9" stop-color="#aecfd4"/><stop offset="0.96" stop-color="#dceaec"/><stop offset="1" stop-color="#fff"/></linearGradient><linearGradient id="Gradient_bez_nazwy_13" x1="516.09" y1="980.03" x2="611.9" y2="980.03" gradientUnits="userSpaceOnUse"><stop offset="0" stop-color="#d3b467"/><stop offset="0.22" stop-color="#e0cb95"/><stop offset="0.47" stop-color="#eee1c3"/><stop offset="0.69" stop-color="#f7f2e4"/><stop offset="0.87" stop-color="#fdfbf8"/><stop offset="1" stop-color="#fff"/></linearGradient></defs><g id="Warstwa_2" data-name="Warstwa 2"><g id="Warstwa_2-2" data-name="Warstwa 2"><polygon class="cls-1" points="286.5 1580.66 975.33 1406.69 1648.76 1406.69 2300.39 1580.66 286.5 1580.66"/><line class="cls-2" x1="1285.89" y1="1081.99" x2="1285.89" y2="1117.98"/><path class="cls-3" d="M1116.35,998.69h392.14a0,0,0,0,1,0,0v147.79a6.16,6.16,0,0,1-6.16,6.16H1122.51a6.16,6.16,0,0,1-6.16-6.16V998.69A0,0,0,0,1,1116.35,998.69Z"/><line class="cls-4" x1="1608.55" y1="1074.44" x2="1608.55" y2="1110.43"/><line class="cls-2" x1="1010.67" y1="1074.44" x2="1010.67" y2="1110.43"/><path class="cls-5" d="M1575.66,1039.7H1622a3.67,3.67,0,0,1,3.67,3.67v75.93A3.67,3.67,0,0,1,1622,1123h-46.32a1.17,1.17,0,0,1-1.17-1.17v-80.93a1.17,1.17,0,0,1,1.17-1.17Z"/><path class="cls-3" d="M1216.36,822.39H1160l-4.4,1c-31.33,5.16-59.44,22.34-67.83,44.14l-39.56,103.06-2.31,6.1v385.83H1574.5V976.64l-2.37-6.1-39.56-103.06c-9-23.4-40.73-41.48-74.75-45.09"/><path class="cls-5" d="M995.85,1039.7h46.32a3.67,3.67,0,0,1,3.67,3.67v75.93a3.67,3.67,0,0,1-3.67,3.67H995.85a1.17,1.17,0,0,1-1.17-1.17v-80.93A1.17,1.17,0,0,1,995.85,1039.7Z" transform="translate(2040.52 2162.67) rotate(180)"/><rect class="cls-6" x="1113.06" y="960.59" width="398.44" height="196.65" rx="5.97"/><path class="cls-7" d="M1432.69,1257l15,10c2.39,1.49,12.09,4.61,33.79-6.86l38.85-26.2c15.22-10.93-2.12-8.3-10.16-7.41l-74.36,13.79C1413.74,1243.23,1426.59,1253.23,1432.69,1257Z"/><path class="cls-7" d="M1186.32,1262.62l-15,10c-2.39,1.49-12.08,4.61-33.79-6.86l-38.85-26.2c-15.22-10.93,2.12-8.3,10.16-7.41l74.36,13.79C1205.27,1248.83,1192.42,1258.83,1186.32,1262.62Z"/><rect class="cls-8" x="1134.68" y="1302.84" width="355.48" height="38.75" rx="1.89"/><rect class="cls-9" x="1242.32" y="1222.38" width="139.92" height="59.93" rx="2.92"/><line class="cls-10" x1="1010.67" y1="1077.89" x2="1010.67" y2="1106.98"/><line class="cls-10" x1="1610.69" y1="1079.12" x2="1610.69" y2="1105.75"/><rect class="cls-11" x="1136.47" y="1317.09" width="351.54" height="10.26"/><rect class="cls-11" x="1243.96" y="1239.15" width="136.96" height="7.94"/><rect class="cls-11" x="1243.96" y="1258.87" width="136.96" height="7.64"/><rect class="cls-12" x="1113.06" y="960.59" width="398.44" height="34.23" rx="5.52"/><line class="cls-13" x1="1468.11" y1="1017.03" x2="1468.11" y2="1134.31"/><rect class="cls-14" x="1079.43" y="719.15" width="465.98" height="176.31" rx="28.57"/><rect class="cls-3" x="1165.88" y="771.59" width="281.96" height="71.42" rx="12.95"/><circle class="cls-15" cx="1498.02" cy="835.88" r="13.49"/><circle class="cls-15" cx="1126.55" cy="835.88" r="13.49"/><circle class="cls-15" cx="1498.02" cy="798.39" r="8.91"/><circle class="cls-15" cx="1126.55" cy="798.39" r="8.91"/><path class="cls-16" d="M1476.07,1370.7h81.35a1.16,1.16,0,0,1,1.16,1.16v45.55a3.75,3.75,0,0,1-3.75,3.75h-76.15a3.75,3.75,0,0,1-3.75-3.75v-45.55a1.16,1.16,0,0,1,1.16-1.16Z"/><line class="cls-16" x1="1536.85" y1="1378.91" x2="1536.85" y2="1421.16"/><line class="cls-16" x1="1516.74" y1="1378.91" x2="1516.74" y2="1421.16"/><line class="cls-16" x1="1497.01" y1="1378.91" x2="1497.01" y2="1421.16"/><path class="cls-16" d="M1075.68,1370.7H1157a1.16,1.16,0,0,1,1.16,1.16v45.55a3.75,3.75,0,0,1-3.75,3.75h-76.15a3.75,3.75,0,0,1-3.75-3.75v-45.55a1.16,1.16,0,0,1,1.16-1.16Z"/><line class="cls-16" x1="1136.46" y1="1378.91" x2="1136.46" y2="1421.16"/><line class="cls-16" x1="1116.35" y1="1378.91" x2="1116.35" y2="1421.16"/><line class="cls-16" x1="1096.62" y1="1378.91" x2="1096.62" y2="1421.16"/><rect class="cls-17" x="1023.77" y="1353.59" width="566.17" height="17.11" rx="8.55"/><g id="woda_2" data-name="woda 2"><line class="cls-18" x1="318.08" y1="1223.98" x2="435.52" y2="1223.98"/><line class="cls-18" x1="383.8" y1="1250.57" x2="465.46" y2="1250.57"/><line class="cls-18" x1="431.51" y1="1280.78" x2="495.69" y2="1280.78"/><line class="cls-18" x1="469.71" y1="1223.98" x2="516.09" y2="1223.98"/><line class="cls-18" x1="346.67" y1="1280.78" x2="404.35" y2="1280.78"/><line class="cls-18" x1="406.65" y1="1201.58" x2="465.46" y2="1201.58"/><line class="cls-18" x1="497.55" y1="1181.21" x2="545.96" y2="1181.21"/><line class="cls-18" x1="427.49" y1="1160.83" x2="469.71" y2="1160.83"/></g><g id="woda_2-2" data-name="woda 2"><line class="cls-18" x1="588.9" y1="1355.75" x2="693.42" y2="1355.75"/><line class="cls-18" x1="647.39" y1="1373.8" x2="720.07" y2="1373.8"/><line class="cls-18" x1="689.85" y1="1394.32" x2="746.96" y2="1394.32"/><line class="cls-18" x1="723.85" y1="1355.75" x2="765.12" y2="1355.75"/><line class="cls-18" x1="614.35" y1="1394.32" x2="665.68" y2="1394.32"/><line class="cls-18" x1="667.72" y1="1340.54" x2="720.07" y2="1340.54"/><line class="cls-18" x1="748.62" y1="1326.7" x2="791.7" y2="1326.7"/><line class="cls-18" x1="686.27" y1="1312.86" x2="723.85" y2="1312.86"/></g><g id="woda_2-3" data-name="woda 2"><line class="cls-18" x1="216.67" y1="1408.84" x2="321.2" y2="1408.84"/><line class="cls-18" x1="275.16" y1="1426.9" x2="347.84" y2="1426.9"/><line class="cls-18" x1="317.62" y1="1447.42" x2="374.74" y2="1447.42"/><line class="cls-18" x1="351.62" y1="1408.84" x2="392.9" y2="1408.84"/><line class="cls-18" x1="242.12" y1="1447.42" x2="293.46" y2="1447.42"/><line class="cls-18" x1="295.5" y1="1393.63" x2="347.84" y2="1393.63"/><line class="cls-18" x1="376.4" y1="1379.79" x2="419.48" y2="1379.79"/><line class="cls-18" x1="314.04" y1="1365.95" x2="351.62" y2="1365.95"/></g><path class="cls-19" d="M1620.5,453.88c-47.89,56.67-121.67,116.2-123.42,195.2"/><path class="cls-20" d="M1207.76,716.86c24.13-21.52,230.07-351.06,289.32-351.9,34.68-.5,79,55,121.56,87.59,18.7-11.87,58.07-57.4,95.47-87.18,25.51-20.31,64.38-13.21,80,14.61,28.77,51.25,77.41,136.39,102.6,171.83,30.92,43.5,60.47,89.38,100.1,131.94"/><path class="cls-20" d="M1909.71,569.78l83.94-56.52c16.18-10.89,38.63-7.57,50.49,7.48,64.41,81.75,108.56,158.62,238.48,250.85C2355,823,2415.23,926.7,2441,960.59"/><path class="cls-19" d="M1770.88,361.05c31.88,35.68,76.61,167.36,46.48,273.1-15.42,54.1-170.86,137.44-168.57,201.73"/><path class="cls-21" d="M1364.81,580.71c23.67-12-20.39-15.08-1.75-23.9.16-.08,17.22-4.89,41.64-13.14,25.83-8.72,36.11-3.91,36.3-15.66.17-10-43.17-12.3-43.21-12.43-2.25-8.32,116.5-21.45,131.51-29.49a7.21,7.21,0,0,0,.26-12.64c-4.71-2.84-65.8-5.82-30.64-16.64,14.07-4.33,46.47-1.68,53.72-2.93a23.74,23.74,0,0,0,12.31-6.26c9-8.61-4.23-44.72-6.16-46.5-4-3.65-43.25-38.3-61.71-36.16-23.49,2.71-84.91,71.28-86.72,75.11-4.09,8.64-117.38,155.46-121.67,164C1288.69,604.05,1330.54,598.15,1364.81,580.71Z"/><path class="cls-22" d="M1987.12,545l.1,0a2,2,0,0,1,1.58,3.66c-3.52,2.16-7.25,4-9.55,6.36-2,2-1.17,5.79,1.41,6.57a17.51,17.51,0,0,0,4.21.6,2,2,0,0,1,.75,3.85c-1.42.62-2.84,1.23-4.26,1.93-4.71,2.31-10.06,8.75-13.91,14.07a3.06,3.06,0,0,0,3.57,4.61,39.33,39.33,0,0,1,4.92-1.37,2,2,0,0,1,2,3.21c-4.08,5.15-11.15,14.74-11.51,19.64-.16,2.12,2.91,6,8.66,8.17a2,2,0,0,1,1.21,2.4c-1.9,6.46-8.11,28.05-6.77,30.44-5.15-7.63-31.89-40.92-39.32-51.37-7.72-10.85-19.15-28.93-19.15-28.93,7.53-5.68,51.7-31.75,57.05-37,.06-.07,20.78-15.3,20.84-15.37,4.55-5.88,30.6-9.33,30.93-9.22,13.52,4.45-30.67,24.6-35.15,34C1983.86,543.08,1985.26,545.32,1987.12,545Z"/><path class="cls-23" d="M1667.79,535.66c3.93-1.3,45-11.85,43.63-15.69-2.34-6.8-40.28-6.15-39.44-16.78.57-7.25,45.2-34.59,55.69-43.87,37.88-33.51-12.21-18.51-22-35.22-8-13.68,50.83-24.19,36.47-26.78-34.76-6.27,37.76-31.14,11.74-43.26-23.91-11.14-73,42.61-96.21,64.94-15.39,14.82-17.67,9.08-50.24,48.52-4.45,5.39-60,66.76-68.29,78.58-11.28,16.06,53.7,4.4,59.79,3.24C1599,549.34,1648.77,541.93,1667.79,535.66Z"/><path class="cls-24" d="M849.75,1126.91c0,14.5,47.3,26.24,105.75,26.24"/><path class="cls-24" d="M849.75,1080.57c0,11.19,47.3,20.25,105.75,20.25"/><path class="cls-24" d="M849.75,1039.64c0,12,47.3,21.66,105.75,21.66"/><path class="cls-24" d="M849.75,991.15c0,13.66,47.3,24.71,105.75,24.71"/><path class="cls-24" d="M849.75,941.67c0,13.4,37.45,24.24,83.72,24.24"/><path class="cls-24" d="M849.75,892.68c0,12.3,23.65,22.25,52.88,22.25"/><line class="cls-24" x1="849.75" y1="848.37" x2="849.75" y2="1202.75"/><path class="cls-24" d="M849.75,1126.91c0,14.5-47.29,26.24-105.74,26.24"/><path class="cls-24" d="M849.75,1080.57c0,11.19-47.29,20.25-105.74,20.25"/><path class="cls-24" d="M849.75,1039.64c0,12-47.29,21.66-105.74,21.66"/><path class="cls-24" d="M849.75,991.15c0,13.66-47.29,24.71-105.74,24.71"/><path class="cls-24" d="M849.75,941.67c0,13.4-37.44,24.24-83.71,24.24"/><path class="cls-24" d="M849.75,892.68c0,12.3-23.64,22.25-52.87,22.25"/><line class="cls-25" x1="849.75" y1="848.37" x2="849.75" y2="1202.75"/><path class="cls-17" d="M1759.69,1173.09c0,6.41,24.79,11.59,55.41,11.59"/><path class="cls-17" d="M1759.69,1152.61c0,5,24.79,9,55.41,9"/><path class="cls-17" d="M1759.69,1134.53c0,5.29,24.79,9.57,55.41,9.57"/><path class="cls-17" d="M1759.69,1113.11c0,6,24.79,10.91,55.41,10.91"/><path class="cls-17" d="M1759.69,1091.25c0,5.92,19.62,10.71,43.87,10.71"/><path class="cls-17" d="M1759.69,1069.6c0,5.44,12.39,9.83,27.71,9.83"/><line class="cls-17" x1="1759.69" y1="1056.15" x2="1759.69" y2="1206.6"/><path class="cls-17" d="M1759.69,1173.09c0,6.41-24.78,11.59-55.41,11.59"/><path class="cls-17" d="M1759.69,1152.61c0,5-24.78,9-55.41,9"/><path class="cls-17" d="M1759.69,1134.53c0,5.29-24.78,9.57-55.41,9.57"/><path class="cls-17" d="M1759.69,1113.11c0,6-24.78,10.91-55.41,10.91"/><path class="cls-17" d="M1759.69,1091.25c0,5.92-19.62,10.71-43.86,10.71"/><path class="cls-17" d="M1759.69,1069.6c0,5.44-12.39,9.83-27.7,9.83"/><line class="cls-26" x1="1759.69" y1="1056.15" x2="1759.69" y2="1213.59"/><path class="cls-27" d="M1040.74,1280.78c-179.69-74.3-340.34-148.37-465.65-148.37-217.39,0-379.44,68.29-416.65,79.85"/><path class="cls-28" d="M1577.27,1287c179.69-74.3,277.13-122.74,441.15-122.74,204.61,0,440.41,63.35,477.62,74.9"/><path d="M338.62,1104.48H672a0,0,0,0,1,0,0v31.6a70.81,70.81,0,0,1-70.81,70.81H409.43a70.81,70.81,0,0,1-70.81-70.81v-31.6a0,0,0,0,1,0,0Z"/><line class="cls-29" x1="505.29" y1="844.23" x2="505.29" y2="1118.56"/><line class="cls-30" x1="505.29" y1="853.13" x2="505.29" y2="1118.56"/><circle class="cls-29" cx="505.29" cy="853.6" r="8.27"/><path class="cls-17" d="M495.92,853.6a9.37,9.37,0,1,0,9.37-9.37,9.38,9.38,0,0,0-9.37,9.37Zm16.54,0a7.17,7.17,0,1,1-7.17-7.17,7.18,7.18,0,0,1,7.17,7.17Z"/><path class="cls-31" d="M637.4,1077.89l-132.11-32.61-.11-170.81s16.58,4.13,55.3,42.34C607.69,963.41,637.35,1077.9,637.4,1077.89Z"/><line class="cls-32" x1="381.11" y1="1140.11" x2="620.16" y2="1140.11"/><line class="cls-32" x1="440.8" y1="1167.58" x2="560.48" y2="1167.58"/><path class="cls-33" d="M900.7,575.56h-2.42c.06-.93.09-1.86.09-2.8a46.49,46.49,0,0,0-57.89-45,46.45,46.45,0,0,0-91-2.29,2.33,2.33,0,0,1-2.74,1.77,46.5,46.5,0,0,0-55.61,45.55v.44a2.32,2.32,0,0,1-2.32,2.36H684a33.45,33.45,0,0,0-33.36,33.35h0A33.45,33.45,0,0,0,684,642.26H900.7a33.45,33.45,0,0,0,33.35-33.35h0A33.45,33.45,0,0,0,900.7,575.56Z"/><path class="cls-34" d="M734.23,652h0a2.33,2.33,0,0,1-2.33-2.36v-.43a46.45,46.45,0,0,0-55.6-45.55,2.34,2.34,0,0,1-2.75-1.78,46.45,46.45,0,0,0-91,2.29,46.49,46.49,0,0,0-57.89,45c0,.94,0,1.86.09,2.79h-7.27a33.45,33.45,0,0,0-33.35,33.35h0a33.45,33.45,0,0,0,33.35,33.36H734.23a33.45,33.45,0,0,0,33.35-33.36h0A33.45,33.45,0,0,0,734.23,652Z"/><rect x="2024.1" y="776.01" width="24.88" height="736.17" rx="12.44"/><polygon class="cls-35" points="2036.65 1033.94 1885.65 1033.94 1815.81 995.49 1885.65 957.05 2036.65 957.05 2036.65 1033.94"/><polygon class="cls-36" points="2036.54 852.39 2189.56 852.39 2260.34 891.35 2189.56 930.31 2036.54 930.31 2036.54 852.39"/><polygon class="cls-24" points="2036.54 1114.07 2116.82 1114.07 2153.96 1093.63 2116.82 1073.19 2036.54 1073.19 2036.54 1114.07"/><path class="cls-15" d="M2647.27,1228.15l-67.4-44.32a60.89,60.89,0,0,1-13.5-89.63L2617.7,1032l-73.25-33.79a60.89,60.89,0,0,1-26.72-86.61l41.49-69.17-77.46-22.5a60.88,60.88,0,0,1-39.32-81.66l30.72-74.59-80-10.69a60.89,60.89,0,0,1-51.06-74.89l19.26-78.33-80.66,1.35a60.9,60.9,0,0,1-61.65-66.45l7.37-80.32-79.55,13.34a60.88,60.88,0,0,1-70.86-56.51l-4.69-80.53-76.68,25.06a60.89,60.89,0,0,1-78.49-45.32l-16.64-78.93-72.09,36.2a60.89,60.89,0,0,1-84.37-33.11L1714.88,59,1649,105.52a60.88,60.88,0,0,1-88.36-20.18l-39.16-70.52-58.21,55.85a60.9,60.9,0,0,1-90.39-6.77L1323.63,0,1274.4,63.89A60.88,60.88,0,0,1,1184,70.67L1125.8,14.82l-39.16,70.52a60.88,60.88,0,0,1-88.36,20.18L932.4,59l-28.22,75.57a60.9,60.9,0,0,1-84.37,33.12l-72.09-36.21-16.64,78.93a60.89,60.89,0,0,1-78.49,45.32l-76.68-25.06-4.68,80.53a60.89,60.89,0,0,1-70.87,56.51l-79.55-13.34,7.37,80.32a60.89,60.89,0,0,1-61.65,66.45l-80.66-1.35,19.26,78.33A60.89,60.89,0,0,1,254.07,653l-79.95,10.69L230.68,801,88,842.42l41.49,69.17a60.88,60.88,0,0,1-26.71,86.61L29.57,1032l51.34,62.21a60.9,60.9,0,0,1-13.51,89.63L0,1228.15,60,1282a60.89,60.89,0,0,1,0,90.63l-47.33,42.48H151.2q-3.21-43.47-3.23-87.79c0-649.3,526.37-1175.67,1175.66-1175.67S2499.31,678.05,2499.31,1327.35q0,44.3-3.24,87.79h138.49l-47.33-42.48a60.87,60.87,0,0,1,0-90.63Z"/><polygon class="cls-29" points="1385.28 1445.86 1244.34 1445.86 1262.97 1427.18 1367.66 1427.18 1385.28 1445.86"/><polygon class="cls-29" points="1424.1 1487.02 1203.31 1487.02 1219.28 1470.99 1408.98 1470.99 1424.1 1487.02"/><polygon class="cls-29" points="1468.96 1534.58 1155.88 1534.58 1178.24 1512.15 1447.81 1512.15 1468.96 1534.58"/><path class="cls-17" d="M79,1812.59,56,1836v60.66H20.66V1702.11H56v91.25l19.54-23.12L135,1702.11h42.72l-75.53,86.17,79.86,108.35H140.17Z"/><path class="cls-17" d="M287.88,1896.63c-1.48-2.76-2.79-7.26-3.9-13.5q-16.2,16.17-39.66,16.17-22.75,0-37.13-12.43t-14.38-30.72q0-23.12,17.94-35.47t51.31-12.36h20.8v-9.49q0-11.22-6.56-18t-20-6.74q-11.58,0-19,5.54t-7.4,14.1H196q0-11.9,8.24-22.25t22.4-16.23a81.81,81.81,0,0,1,31.63-5.88q26.52,0,42.3,12.76T316.78,1798v65.2q0,19.5,5.73,31.12v2.28Zm-37.27-23.38a40,40,0,0,0,18.92-4.68A32,32,0,0,0,282.86,1856v-27.25H264.57q-18.85,0-28.34,6.28a20.1,20.1,0,0,0-9.5,17.77q0,9.35,6.5,14.89T250.61,1873.25Z"/><path class="cls-17" d="M384.22,1752.07l1,15.1q15.92-17.76,43.56-17.77,30.28,0,41.46,22.18,16.47-22.17,46.35-22.18,25,0,37.21,13.23t12.5,39v95H532.35v-94.06q0-13.75-6.28-20.17t-20.8-6.41q-11.59,0-18.92,5.94a31.18,31.18,0,0,0-10.26,15.57l.14,99.13H442.3V1801.5Q441.6,1776,415.07,1776q-20.38,0-28.9,15.9v104.74H352.25V1752.07Z"/><path class="cls-17" d="M733.4,1825.82q0,33.54-15.92,53.51t-42.72,20q-24.85,0-39.79-15.63v68.53H601V1752.07h31.27l1.4,14.7q14.94-17.37,40.63-17.37,27.64,0,43.35,19.71t15.71,54.71ZM699.61,1823q0-21.63-9-34.33T664.84,1776q-20.8,0-29.87,16.43v64.13q9.21,16.83,30.15,16.83,16.2,0,25.34-12.49T699.61,1823Z"/><path class="cls-17" d="M828.61,1899.3q-32.25,0-52.28-19.44t-20-51.77v-4q0-21.64,8.73-38.67a64.44,64.44,0,0,1,24.5-26.52,66.9,66.9,0,0,1,35.18-9.49q30.85,0,47.68,18.84t16.82,53.3v13.1H790.5Q792,1852.54,803,1863t27.58,10.42q23.31,0,38-18l18.29,16.7a60.31,60.31,0,0,1-24.22,20.11Q847.46,1899.29,828.61,1899.3Zm-4.05-123.85q-14,0-22.54,9.35t-11,26.06H855.7v-2.41q-1.12-16.29-9.08-24.65T824.56,1775.45Z"/><path class="cls-17" d="M994.61,1781.73a87.82,87.82,0,0,0-13.82-1.07q-23.31,0-31.41,17.1v98.87H915.45V1752.07h32.39l.84,16.17q12.29-18.84,34.07-18.84a33.14,33.14,0,0,1,12,1.87Z"/><path class="cls-17" d="M1079.92,1899.3q-32.25,0-52.29-19.44t-20-51.77v-4q0-21.64,8.72-38.67a64.53,64.53,0,0,1,24.51-26.52,66.87,66.87,0,0,1,35.18-9.49q30.85,0,47.68,18.84t16.82,53.3v13.1H1041.8q1.54,17.89,12.5,28.32t27.57,10.42q23.33,0,38-18l18.29,16.7a60.34,60.34,0,0,1-24.23,20.11Q1098.77,1899.29,1079.92,1899.3Zm-4.05-123.85q-14,0-22.55,9.35t-11,26.06H1107v-2.41q-1.11-16.29-9.07-24.65T1075.87,1775.45Z"/><path class="cls-17" d="M1198.73,1752.07l1,15.1q15.91-17.76,43.56-17.77,30.29,0,41.46,22.18,16.49-22.17,46.36-22.18,25,0,37.2,13.23t12.5,39v95h-33.93v-94.06q0-13.75-6.28-20.17t-20.8-6.41q-11.6,0-18.92,5.94a31.18,31.18,0,0,0-10.26,15.57l.14,99.13h-33.93V1801.5q-.7-25.51-27.22-25.51-20.4,0-28.9,15.9v104.74h-33.93V1752.07Z"/><path class="cls-17" d="M1619.53,1851.87l24-99.8h33.09l-41.19,144.56h-27.92l-32.39-99.27-31.83,99.27h-27.92l-41.33-144.56h33.09l24.43,98.73,31-98.73h25.55Z"/><path class="cls-17" d="M1764.17,1823.28q0-33.39,16.19-53.64t43.42-20.24q24,0,38.82,16v-74h33.92v205.21h-30.71l-1.68-15q-15.21,17.64-40.62,17.64-26.54,0-42.94-20.44T1764.17,1823.28Zm33.93,2.81q0,22,8.86,34.4t25.2,12.36q20.8,0,30.44-17.77v-61.72q-9.36-17.37-30.16-17.37-16.47,0-25.41,12.49T1798.1,1826.09Z"/><path class="cls-17" d="M2011,1781.73a88,88,0,0,0-13.82-1.07q-23.32,0-31.42,17.1v98.87h-33.92V1752.07h32.39l.83,16.17q12.29-18.84,34.07-18.84a33.24,33.24,0,0,1,12,1.87Z"/><path class="cls-17" d="M2021.06,1823q0-21.24,8.8-38.27a62.49,62.49,0,0,1,24.71-26.19q15.91-9.15,36.58-9.15,30.57,0,49.63,18.84t20.59,50l.14,7.62q0,21.38-8.58,38.21a61.84,61.84,0,0,1-24.58,26q-16,9.23-36.92,9.22-32,0-51.17-20.38t-19.2-54.3Zm33.93,2.81q0,22.31,9.63,34.94t26.81,12.62q17.16,0,26.73-12.83t9.57-37.54q0-21.9-9.85-34.73t-26.73-12.83q-16.62,0-26.39,12.63T2055,1825.82Z"/><path class="cls-17" d="M2183.85,1823.28q0-33.39,16.2-53.64t43.42-20.24q24,0,38.81,16v-74h33.92v205.21h-30.71l-1.68-15q-15.21,17.64-40.62,17.64-26.54,0-42.93-20.44T2183.85,1823.28Zm33.93,2.81q0,22,8.86,34.4t25.2,12.36q20.8,0,30.44-17.77v-61.72q-9.36-17.37-30.16-17.37-16.47,0-25.41,12.49T2217.78,1826.09Z"/><path class="cls-17" d="M2387.83,1870.71h80.42v25.92H2345.66v-21.25l76.65-97.12h-75.25v-26.19h118.25v20.58Z"/><path class="cls-17" d="M2559.69,1899.3q-32.25,0-52.28-19.44t-20-51.77v-4q0-21.64,8.73-38.67a64.44,64.44,0,0,1,24.5-26.52,66.9,66.9,0,0,1,35.18-9.49q30.85,0,47.68,18.84t16.82,53.3v13.1h-98.7q1.53,17.89,12.49,28.32t27.58,10.42q23.31,0,38-18l18.29,16.7a60.31,60.31,0,0,1-24.22,20.11Q2578.54,1899.29,2559.69,1899.3Zm-4.05-123.85q-14,0-22.54,9.35t-11,26.06h64.64v-2.41q-1.12-16.29-9.08-24.65T2555.64,1775.45Z"/><path class="cls-37" d="M516.09,900.85s43.62,29.73,62.33,63.13c21.17,37.8,30.2,100,33.48,94.94L516.09,1033Z"/></g></g></svg>