<svg viewBox="0 0 2647.27 1952.2" xmlns="http://www.w3.org/2000/svg" xmlns:xlink="http://www.w3.org/1999/xlink"><linearGradient id="a" gradientUnits="userSpaceOnUse" x1="1113.06" x2="1511.51" y1="1058.92" y2="1058.92"><stop offset="0" stop-color="#d3b467"/><stop offset=".16" stop-color="#a48c50"/><stop offset=".38" stop-color="#6a5a34"/><stop offset=".58" stop-color="#3c331d"/><stop offset=".75" stop-color="#1b170d"/><stop offset=".9" stop-color="#070604"/><stop offset="1"/></linearGradient><linearGradient id="b" gradientUnits="userSpaceOnUse" x1="1079.43" x2="1545.41" y1="807.3" y2="807.3"><stop offset="0" stop-color="#016878"/><stop offset=".35" stop-color="#026676"/><stop offset=".53" stop-color="#04606e"/><stop offset=".68" stop-color="#075561"/><stop offset=".8" stop-color="#0c454e"/><stop offset=".91" stop-color="#133135"/><stop offset="1" stop-color="#1a1a1a"/></linearGradient><linearGradient id="c" gradientUnits="userSpaceOnUse" x1="1165.88" x2="1447.83" y1="807.3" y2="807.3"><stop offset="0" stop-color="#fff"/><stop offset=".16" stop-color="#fcfcfc"/><stop offset=".3" stop-color="#f1f1f1"/><stop offset=".42" stop-color="#e0e0e0"/><stop offset=".54" stop-color="#c7c7c7"/><stop offset=".66" stop-color="#a8a8a8"/><stop offset=".77" stop-color="#818181"/><stop offset=".89" stop-color="#525252"/><stop offset=".99" stop-color="#1e1e1e"/><stop offset="1" stop-color="#1a1a1a"/></linearGradient><linearGradient id="d" gradientUnits="userSpaceOnUse" x1="1288.69" x2="1568.07" y1="484.45" y2="484.45"><stop offset="0" stop-color="#fff"/><stop offset=".09" stop-color="#f9f9f9"/><stop offset=".22" stop-color="#e8e8e8"/><stop offset=".36" stop-color="#cdcdcd"/><stop offset=".52" stop-color="#a6a6a6"/><stop offset=".68" stop-color="#757575"/><stop offset=".85" stop-color="#393939"/><stop offset="1"/></linearGradient><linearGradient id="e" gradientUnits="userSpaceOnUse" x1="1911.09" x2="2022.47" y1="578.13" y2="578.13"><stop offset="0" stop-color="#fff"/><stop offset=".05" stop-color="#ebebeb"/><stop offset=".26" stop-color="#a5a5a5"/><stop offset=".45" stop-color="#6a6a6a"/><stop offset=".63" stop-color="#3c3c3c"/><stop offset=".78" stop-color="#1b1b1b"/><stop offset=".91" stop-color="#070707"/><stop offset="1"/></linearGradient><linearGradient id="f" gradientUnits="userSpaceOnUse" x1="1537.88" x2="1759.69" y1="453.53" y2="453.53"><stop offset="0" stop-color="#fff"/><stop offset=".09" stop-color="#f8f8f8"/><stop offset=".22" stop-color="#e5e5e5"/><stop offset=".37" stop-color="#c6c6c6"/><stop offset=".54" stop-color="#9b9b9b"/><stop offset=".72" stop-color="#636363"/><stop offset=".91" stop-color="#202020"/><stop offset="1"/></linearGradient><linearGradient id="g" gradientUnits="userSpaceOnUse" x1="505.18" x2="637.4" y1="976.18" y2="976.18"><stop offset="0" stop-color="#d3b467"/><stop offset="1" stop-color="#fff"/></linearGradient><linearGradient id="h" gradientUnits="userSpaceOnUse" x1="484.13" x2="767.58" y1="642.26" y2="642.26"><stop offset="0" stop-color="#016878"/><stop offset=".28" stop-color="#036979"/><stop offset=".41" stop-color="#0b6e7d"/><stop offset=".52" stop-color="#187684"/><stop offset=".61" stop-color="#2b818e"/><stop offset=".69" stop-color="#438f9b"/><stop offset=".77" stop-color="#61a1ab"/><stop offset=".84" stop-color="#85b6be"/><stop offset=".9" stop-color="#aecfd4"/><stop offset=".96" stop-color="#dceaec"/><stop offset="1" stop-color="#fff"/></linearGradient><linearGradient id="i" gradientUnits="userSpaceOnUse" x1="516.09" x2="611.9" y1="980.03" y2="980.03"><stop offset="0" stop-color="#d3b467"/><stop offset=".22" stop-color="#e0cb95"/><stop offset=".47" stop-color="#eee1c3"/><stop offset=".69" stop-color="#f7f2e4"/><stop offset=".87" stop-color="#fdfbf8"/><stop offset="1" stop-color="#fff"/></linearGradient><path d="m286.5 1580.66 688.83-173.97h673.43l651.63 173.97z" opacity=".72" stroke="#000" stroke-miterlimit="10" stroke-width="5"/><path d="m1285.89 1081.99v35.99" fill="#fff" stroke="#fff" stroke-miterlimit="10" stroke-width="4"/><path d="m1116.35 998.69h392.14a0 0 0 0 1 0 0v147.79a6.16 6.16 0 0 1 -6.16 6.16h-379.82a6.16 6.16 0 0 1 -6.16-6.16v-147.79a0 0 0 0 1 0 0z" fill="#fff" stroke="#000" stroke-miterlimit="10" stroke-width="8"/><path d="m1608.55 1074.44v35.99" fill="none" stroke="#fff" stroke-miterlimit="10" stroke-width="4"/><path d="m1010.67 1074.44v35.99" fill="#fff" stroke="#fff" stroke-miterlimit="10" stroke-width="4"/><path d="m1575.66 1039.7h46.34a3.67 3.67 0 0 1 3.67 3.67v75.93a3.67 3.67 0 0 1 -3.67 3.7h-46.32a1.17 1.17 0 0 1 -1.17-1.17v-80.93a1.17 1.17 0 0 1 1.15-1.2z" fill="#016878" stroke="#fff" stroke-miterlimit="10" stroke-width="4"/><path d="m1216.36 822.39h-56.36l-4.4 1c-31.33 5.16-59.44 22.34-67.83 44.14l-39.56 103.06-2.31 6.1v385.83h528.6v-385.88l-2.37-6.1-39.56-103.06c-9-23.4-40.73-41.48-74.75-45.09" fill="#fff" stroke="#fff" stroke-miterlimit="10" stroke-width="8"/><path d="m995.85 1039.7h46.32a3.67 3.67 0 0 1 3.67 3.67v75.93a3.67 3.67 0 0 1 -3.67 3.67h-46.32a1.17 1.17 0 0 1 -1.17-1.17v-80.93a1.17 1.17 0 0 1 1.17-1.17z" fill="#016878" stroke="#fff" stroke-miterlimit="10" stroke-width="4" transform="matrix(-1 0 0 -1 2040.52 2162.67)"/><rect fill="url(#a)" height="196.65" rx="5.97" stroke="#000" stroke-miterlimit="10" stroke-width="5" width="398.44" x="1113.06" y="960.59"/><path d="m1432.69 1257 15 10c2.39 1.49 12.09 4.61 33.79-6.86l38.85-26.2c15.22-10.93-2.12-8.3-10.16-7.41l-74.36 13.79c-22.07 2.91-9.22 12.91-3.12 16.68z" fill="#d3b467" stroke="#000" stroke-miterlimit="10" stroke-width="4"/><path d="m1186.32 1262.62-15 10c-2.39 1.49-12.08 4.61-33.79-6.86l-38.85-26.2c-15.22-10.93 2.12-8.3 10.16-7.41l74.36 13.79c22.07 2.89 9.22 12.89 3.12 16.68z" fill="#d3b467" stroke="#000" stroke-miterlimit="10" stroke-width="4"/><rect fill="none" height="38.75" rx="1.89" stroke="#000" stroke-miterlimit="10" stroke-width="4" width="355.48" x="1134.68" y="1302.84"/><rect fill="none" height="59.93" rx="2.92" stroke="#000" stroke-miterlimit="10" stroke-width="3" width="139.92" x="1242.32" y="1222.38"/><path d="m1010.67 1077.89v29.09" fill="none" stroke="#d3b467" stroke-miterlimit="10" stroke-width="6"/><path d="m1610.69 1079.12v26.63" fill="none" stroke="#d3b467" stroke-miterlimit="10" stroke-width="6"/><path d="m1136.46 1317.09h351.43v10.26h-351.43z" fill="#016878" stroke="#000" stroke-miterlimit="10"/><path d="m1243.4 1239.15h137.53v7.94h-137.53z" fill="#016878" stroke="#000" stroke-miterlimit="10"/><path d="m1243.4 1258.87h137.53v7.64h-137.53z" fill="#016878" stroke="#000" stroke-miterlimit="10"/><rect fill="#016878" height="34.23" rx="5.52" stroke="#000" stroke-miterlimit="10" stroke-width="8" width="398.44" x="1113.06" y="960.59"/><path d="m1468.11 1017.03v117.28" fill="none" stroke="#d3b467" stroke-miterlimit="10" stroke-width="20"/><rect fill="url(#b)" height="176.31" rx="28.57" stroke="#fff" stroke-miterlimit="10" stroke-width="4" width="465.98" x="1079.43" y="719.15"/><rect fill="url(#c)" height="71.42" rx="12.95" stroke="#000" stroke-miterlimit="10" stroke-width="8" width="281.96" x="1165.88" y="771.59"/><circle cx="1498.02" cy="835.88" fill="#d3b467" r="13.49"/><circle cx="1126.55" cy="835.88" fill="#d3b467" r="13.49"/><circle cx="1498.02" cy="798.39" fill="#d3b467" r="8.91"/><circle cx="1126.55" cy="798.39" fill="#d3b467" r="8.91"/><path d="m1476.07 1370.7h81.35a1.16 1.16 0 0 1 1.16 1.16v45.55a3.75 3.75 0 0 1 -3.75 3.75h-76.15a3.75 3.75 0 0 1 -3.75-3.75v-45.55a1.16 1.16 0 0 1 1.14-1.16z" fill="#d8d8d8" stroke="#1a1a1a" stroke-miterlimit="10" stroke-width="5"/><path d="m1536.85 1378.91v42.25" fill="#d8d8d8" stroke="#1a1a1a" stroke-miterlimit="10" stroke-width="5"/><path d="m1516.74 1378.91v42.25" fill="#d8d8d8" stroke="#1a1a1a" stroke-miterlimit="10" stroke-width="5"/><path d="m1497.01 1378.91v42.25" fill="#d8d8d8" stroke="#1a1a1a" stroke-miterlimit="10" stroke-width="5"/><path d="m1075.68 1370.7h81.32a1.16 1.16 0 0 1 1.16 1.16v45.55a3.75 3.75 0 0 1 -3.75 3.75h-76.15a3.75 3.75 0 0 1 -3.75-3.75v-45.55a1.16 1.16 0 0 1 1.16-1.16z" fill="#d8d8d8" stroke="#1a1a1a" stroke-miterlimit="10" stroke-width="5"/><path d="m1136.46 1378.91v42.25" fill="#d8d8d8" stroke="#1a1a1a" stroke-miterlimit="10" stroke-width="5"/><path d="m1116.35 1378.91v42.25" fill="#d8d8d8" stroke="#1a1a1a" stroke-miterlimit="10" stroke-width="5"/><path d="m1096.62 1378.91v42.25" fill="#d8d8d8" stroke="#1a1a1a" stroke-miterlimit="10" stroke-width="5"/><rect fill="#d3b467" height="17.11" rx="8.55" width="566.17" x="1023.77" y="1353.59"/><g stroke-miterlimit="10"><path d="m318.08 1223.98h117.44" fill="none" stroke="#fff" stroke-width="4"/><path d="m383.8 1250.57h81.66" fill="none" stroke="#fff" stroke-width="4"/><path d="m431.51 1280.78h64.18" fill="none" stroke="#fff" stroke-width="4"/><path d="m469.71 1223.98h46.38" fill="none" stroke="#fff" stroke-width="4"/><path d="m346.67 1280.78h57.68" fill="none" stroke="#fff" stroke-width="4"/><path d="m406.65 1201.58h58.81" fill="none" stroke="#fff" stroke-width="4"/><path d="m497.55 1181.21h48.41" fill="none" stroke="#fff" stroke-width="4"/><path d="m427.49 1160.83h42.22" fill="none" stroke="#fff" stroke-width="4"/><path d="m588.9 1355.75h104.52" fill="none" stroke="#fff" stroke-width="4"/><path d="m647.39 1373.8h72.68" fill="none" stroke="#fff" stroke-width="4"/><path d="m689.85 1394.32h57.11" fill="none" stroke="#fff" stroke-width="4"/><path d="m723.85 1355.75h41.27" fill="none" stroke="#fff" stroke-width="4"/><path d="m614.35 1394.32h51.33" fill="none" stroke="#fff" stroke-width="4"/><path d="m667.72 1340.54h52.35" fill="none" stroke="#fff" stroke-width="4"/><path d="m748.62 1326.7h43.08" fill="none" stroke="#fff" stroke-width="4"/><path d="m686.27 1312.86h37.58" fill="none" stroke="#fff" stroke-width="4"/><path d="m216.67 1408.84h104.53" fill="none" stroke="#fff" stroke-width="4"/><path d="m275.16 1426.9h72.68" fill="none" stroke="#fff" stroke-width="4"/><path d="m317.62 1447.42h57.12" fill="none" stroke="#fff" stroke-width="4"/><path d="m351.62 1408.84h41.28" fill="none" stroke="#fff" stroke-width="4"/><path d="m242.12 1447.42h51.34" fill="none" stroke="#fff" stroke-width="4"/><path d="m295.5 1393.63h52.34" fill="none" stroke="#fff" stroke-width="4"/><path d="m376.4 1379.79h43.08" fill="none" stroke="#fff" stroke-width="4"/><path d="m314.04 1365.95h37.58" fill="none" stroke="#fff" stroke-width="4"/><path d="m1620.5 453.88c-47.89 56.67-121.67 116.2-123.42 195.2" fill="none" stroke="#fff" stroke-width="8"/><path d="m1207.76 716.86c24.13-21.52 230.07-351.06 289.32-351.9 34.68-.5 79 55 121.56 87.59 18.7-11.87 58.07-57.4 95.47-87.18 25.51-20.31 64.38-13.21 80 14.61 28.77 51.25 77.41 136.39 102.6 171.83 30.92 43.5 60.47 89.38 100.1 131.94" fill="none" stroke="#fff" stroke-linecap="round" stroke-width="8"/><path d="m1909.71 569.78 83.94-56.52c16.18-10.89 38.63-7.57 50.49 7.48 64.41 81.75 108.56 158.62 238.48 250.85 72.38 51.41 132.61 155.11 158.38 189" fill="none" stroke="#fff" stroke-linecap="round" stroke-width="8"/><path d="m1770.88 361.05c31.88 35.68 76.61 167.36 46.48 273.1-15.42 54.1-170.86 137.44-168.57 201.73" fill="none" stroke="#fff" stroke-width="8"/><path d="m1364.81 580.71c23.67-12-20.39-15.08-1.75-23.9.16-.08 17.22-4.89 41.64-13.14 25.83-8.72 36.11-3.91 36.3-15.66.17-10-43.17-12.3-43.21-12.43-2.25-8.32 116.5-21.45 131.51-29.49a7.21 7.21 0 0 0 .26-12.64c-4.71-2.84-65.8-5.82-30.64-16.64 14.07-4.33 46.47-1.68 53.72-2.93a23.74 23.74 0 0 0 12.31-6.26c9-8.61-4.23-44.72-6.16-46.5-4-3.65-43.25-38.3-61.71-36.16-23.49 2.71-84.91 71.28-86.72 75.11-4.09 8.64-117.38 155.46-121.67 164 0-.02 41.85-5.92 76.12-23.36z" fill="url(#d)" stroke="#fff" stroke-width="8"/><path d="m1987.12 545h.1a2 2 0 0 1 1.58 3.66c-3.52 2.16-7.25 4-9.55 6.36-2 2-1.17 5.79 1.41 6.57a17.51 17.51 0 0 0 4.21.6 2 2 0 0 1 .75 3.85c-1.42.62-2.84 1.23-4.26 1.93-4.71 2.31-10.06 8.75-13.91 14.07a3.06 3.06 0 0 0 3.57 4.61 39.33 39.33 0 0 1 4.92-1.37 2 2 0 0 1 2 3.21c-4.08 5.15-11.15 14.74-11.51 19.64-.16 2.12 2.91 6 8.66 8.17a2 2 0 0 1 1.21 2.4c-1.9 6.46-8.11 28.05-6.77 30.44-5.15-7.63-31.89-40.92-39.32-51.37-7.72-10.85-19.15-28.93-19.15-28.93 7.53-5.68 51.7-31.75 57.05-37 .06-.07 20.78-15.3 20.84-15.37 4.55-5.88 30.6-9.33 30.93-9.22 13.52 4.45-30.67 24.6-35.15 34-.87 1.83.53 4.07 2.39 3.75z" fill="url(#e)" stroke="#fff" stroke-width="8"/><path d="m1667.79 535.66c3.93-1.3 45-11.85 43.63-15.69-2.34-6.8-40.28-6.15-39.44-16.78.57-7.25 45.2-34.59 55.69-43.87 37.88-33.51-12.21-18.51-22-35.22-8-13.68 50.83-24.19 36.47-26.78-34.76-6.27 37.76-31.14 11.74-43.26-23.91-11.14-73 42.61-96.21 64.94-15.39 14.82-17.67 9.08-50.24 48.52-4.45 5.39-60 66.76-68.29 78.58-11.28 16.06 53.7 4.4 59.79 3.24.07 0 49.84-7.41 68.86-13.68z" fill="url(#f)" stroke="#fff" stroke-width="8"/><path d="m849.75 1126.91c0 14.5 47.3 26.24 105.75 26.24" fill="#fff" stroke="#fff" stroke-width="2"/><path d="m849.75 1080.57c0 11.19 47.3 20.25 105.75 20.25" fill="#fff" stroke="#fff" stroke-width="2"/><path d="m849.75 1039.64c0 12 47.3 21.66 105.75 21.66" fill="#fff" stroke="#fff" stroke-width="2"/><path d="m849.75 991.15c0 13.66 47.3 24.71 105.75 24.71" fill="#fff" stroke="#fff" stroke-width="2"/><path d="m849.75 941.67c0 13.4 37.45 24.24 83.72 24.24" fill="#fff" stroke="#fff" stroke-width="2"/><path d="m849.75 892.68c0 12.3 23.65 22.25 52.88 22.25" fill="#fff" stroke="#fff" stroke-width="2"/><path d="m849.75 848.37v354.38" fill="#016878" stroke="#016878" stroke-width="2"/><path d="m849.75 1126.91c0 14.5-47.29 26.24-105.74 26.24" fill="#fff" stroke="#fff" stroke-width="2"/><path d="m849.75 1080.57c0 11.19-47.29 20.25-105.74 20.25" fill="#fff" stroke="#fff" stroke-width="2"/><path d="m849.75 1039.64c0 12-47.29 21.66-105.74 21.66" fill="#fff" stroke="#fff" stroke-width="2"/><path d="m849.75 991.15c0 13.66-47.29 24.71-105.74 24.71" fill="#fff" stroke="#fff" stroke-width="2"/><path d="m849.75 941.67c0 13.4-37.44 24.24-83.71 24.24" fill="#fff" stroke="#fff" stroke-width="2"/><path d="m849.75 892.68c0 12.3-23.64 22.25-52.87 22.25" fill="#fff" stroke="#fff" stroke-width="2"/><path d="m849.75 848.37v354.38" fill="#fff" stroke="#fff" stroke-linecap="round" stroke-width="5"/></g><path d="m1759.69 1173.09c0 6.41 24.79 11.59 55.41 11.59" fill="#fff"/><path d="m1759.69 1152.61c0 5 24.79 9 55.41 9" fill="#fff"/><path d="m1759.69 1134.53c0 5.29 24.79 9.57 55.41 9.57" fill="#fff"/><path d="m1759.69 1113.11c0 6 24.79 10.91 55.41 10.91" fill="#fff"/><path d="m1759.69 1091.25c0 5.92 19.62 10.71 43.87 10.71" fill="#fff"/><path d="m1759.69 1069.6c0 5.44 12.39 9.83 27.71 9.83" fill="#fff"/><path d="m1759.69 1056.15v150.45" fill="#016878"/><path d="m1759.69 1173.09c0 6.41-24.78 11.59-55.41 11.59" fill="#fff"/><path d="m1759.69 1152.61c0 5-24.78 9-55.41 9" fill="#fff"/><path d="m1759.69 1134.53c0 5.29-24.78 9.57-55.41 9.57" fill="#fff"/><path d="m1759.69 1113.11c0 6-24.78 10.91-55.41 10.91" fill="#fff"/><path d="m1759.69 1091.25c0 5.92-19.62 10.71-43.86 10.71" fill="#fff"/><path d="m1759.69 1069.6c0 5.44-12.39 9.83-27.7 9.83" fill="#fff"/><path d="m1759.69 1056.15v157.44" fill="#fff" stroke="#fff" stroke-linecap="round" stroke-miterlimit="10" stroke-width="3"/><path d="m1040.74 1280.78c-179.69-74.3-340.34-148.37-465.65-148.37-217.39 0-379.44 68.29-416.65 79.85" fill="none" stroke="#fff" stroke-miterlimit="10" stroke-width="7"/><path d="m1577.27 1287c179.69-74.3 277.13-122.74 441.15-122.74 204.61 0 440.41 63.35 477.62 74.9" fill="none" stroke="#fff" stroke-linecap="round" stroke-miterlimit="10" stroke-width="7"/><path d="m338.62 1104.48h333.38a0 0 0 0 1 0 0v31.6a70.81 70.81 0 0 1 -70.81 70.81h-191.76a70.81 70.81 0 0 1 -70.81-70.81v-31.6a0 0 0 0 1 0 0z" fill="#d3b467"/><path d="m505.29 844.23v274.33" fill="#fff"/><path d="m505.29 853.13v265.43" fill="none" stroke="#fff" stroke-miterlimit="10" stroke-width="20"/><circle cx="505.29" cy="853.6" fill="#fff" r="8.27"/><path d="m495.92 853.6a9.37 9.37 0 1 0 9.37-9.37 9.38 9.38 0 0 0 -9.37 9.37zm16.54 0a7.17 7.17 0 1 1 -7.17-7.17 7.18 7.18 0 0 1 7.17 7.17z" fill="#fff"/><path d="m637.4 1077.89-132.11-32.61-.11-170.81s16.58 4.13 55.3 42.34c47.21 46.6 76.87 161.09 76.92 161.08z" fill="url(#g)" stroke="#fff" stroke-miterlimit="10" stroke-width="4"/><path d="m381.11 1140.11h239.05" fill="#fff" stroke="#fff" stroke-miterlimit="10" stroke-width="5"/><path d="m440.8 1167.58h119.68" fill="#fff" stroke="#fff" stroke-miterlimit="10" stroke-width="5"/><path d="m900.7 575.56h-2.42c.06-.93.09-1.86.09-2.8a46.49 46.49 0 0 0 -57.89-45 46.45 46.45 0 0 0 -91-2.29 2.33 2.33 0 0 1 -2.74 1.77 46.5 46.5 0 0 0 -55.61 45.55v.44a2.32 2.32 0 0 1 -2.32 2.36h-4.81a33.45 33.45 0 0 0 -33.36 33.35 33.45 33.45 0 0 0 33.36 33.32h216.7a33.45 33.45 0 0 0 33.35-33.35 33.45 33.45 0 0 0 -33.35-33.35z" fill="#fff" stroke="#d3b467" stroke-miterlimit="10" stroke-width="5"/><path d="m734.23 652a2.33 2.33 0 0 1 -2.33-2.36v-.43a46.45 46.45 0 0 0 -55.6-45.55 2.34 2.34 0 0 1 -2.75-1.78 46.45 46.45 0 0 0 -91 2.29 46.49 46.49 0 0 0 -57.89 45c0 .94 0 1.86.09 2.79h-7.27a33.45 33.45 0 0 0 -33.35 33.35 33.45 33.45 0 0 0 33.35 33.36h216.75a33.45 33.45 0 0 0 33.35-33.36 33.45 33.45 0 0 0 -33.35-33.31z" fill="url(#h)" stroke="#fff" stroke-miterlimit="10"/><path d="m2647.27 1228.15-67.4-44.32a60.89 60.89 0 0 1 -13.5-89.63l51.33-62.2-73.25-33.79a60.89 60.89 0 0 1 -26.72-86.61l41.49-69.17-77.46-22.5a60.88 60.88 0 0 1 -39.32-81.66l30.72-74.59-80-10.69a60.89 60.89 0 0 1 -51.06-74.89l19.26-78.33-80.66 1.35a60.9 60.9 0 0 1 -61.65-66.45l7.37-80.32-79.55 13.34a60.88 60.88 0 0 1 -70.86-56.51l-4.69-80.53-76.68 25.06a60.89 60.89 0 0 1 -78.49-45.32l-16.64-78.93-72.09 36.2a60.89 60.89 0 0 1 -84.37-33.11l-28.17-75.55-65.88 46.52a60.88 60.88 0 0 1 -88.36-20.18l-39.16-70.52-58.21 55.85a60.9 60.9 0 0 1 -90.39-6.77l-49.25-63.9-49.23 63.89a60.88 60.88 0 0 1 -90.4 6.78l-58.2-55.85-39.16 70.52a60.88 60.88 0 0 1 -88.36 20.18l-65.88-46.52-28.22 75.57a60.9 60.9 0 0 1 -84.37 33.12l-72.09-36.21-16.64 78.93a60.89 60.89 0 0 1 -78.49 45.32l-76.68-25.06-4.68 80.53a60.89 60.89 0 0 1 -70.87 56.51l-79.55-13.34 7.37 80.32a60.89 60.89 0 0 1 -61.65 66.45l-80.66-1.35 19.26 78.33a60.89 60.89 0 0 1 -51.06 74.88l-79.95 10.69 56.56 137.31-142.68 41.42 41.49 69.17a60.88 60.88 0 0 1 -26.71 86.61l-73.21 33.8 51.34 62.21a60.9 60.9 0 0 1 -13.51 89.63l-67.4 44.31 60 53.85a60.89 60.89 0 0 1 0 90.63l-47.33 42.48h138.53q-3.21-43.47-3.23-87.79c0-649.3 526.37-1175.67 1175.66-1175.67s1175.68 526.4 1175.68 1175.7q0 44.3-3.24 87.79h138.49l-47.33-42.48a60.87 60.87 0 0 1 0-90.63z" fill="#d3b467"/><path d="m1385.28 1445.86h-140.94l18.63-18.68h104.69z" fill="#fff"/><path d="m1424.1 1487.02h-220.79l15.97-16.03h189.7z" fill="#fff"/><path d="m1468.96 1534.58h-313.08l22.36-22.43h269.57z" fill="#fff"/><path d="m79 1812.59-23 23.41v60.66h-35.34v-194.55h35.34v91.25l19.54-23.12 59.46-68.13h42.72l-75.53 86.17 79.86 108.35h-41.88z" fill="#fcfcfc"/><path d="m287.88 1896.63c-1.48-2.76-2.79-7.26-3.9-13.5q-16.2 16.17-39.65 16.17-22.77 0-37.14-12.43t-14.38-30.72q0-23.12 17.94-35.47t51.31-12.36h20.8v-9.49q0-11.22-6.56-18t-20-6.74q-11.58 0-19 5.54t-7.39 14.1h-33.91q0-11.9 8.24-22.25t22.4-16.23a81.81 81.81 0 0 1 31.63-5.88q26.52 0 42.3 12.76t16.2 35.87v65.2q0 19.5 5.72 31.12v2.28zm-37.27-23.38a40 40 0 0 0 18.92-4.68 32 32 0 0 0 13.33-12.57v-27.25h-18.29q-18.85 0-28.34 6.28a20.1 20.1 0 0 0 -9.5 17.77q0 9.35 6.5 14.89t17.38 5.56z" fill="#fcfcfc"/><path d="m384.22 1752.07 1 15.1q15.92-17.76 43.56-17.77 30.28 0 41.46 22.18 16.47-22.17 46.35-22.18 25 0 37.21 13.23t12.5 39v95h-33.95v-94.06q0-13.75-6.28-20.17t-20.8-6.41q-11.59 0-18.92 5.94a31.18 31.18 0 0 0 -10.26 15.57l.14 99.13h-33.93v-95.13q-.7-25.5-27.23-25.5-20.38 0-28.9 15.9v104.74h-33.92v-144.57z" fill="#fcfcfc"/><path d="m733.4 1825.82q0 33.54-15.92 53.51t-42.72 20q-24.85 0-39.79-15.63v68.53h-33.97v-200.16h31.27l1.4 14.7q14.94-17.37 40.63-17.37 27.64 0 43.35 19.71t15.71 54.71zm-33.79-2.82q0-21.63-9-34.33t-25.77-12.67q-20.8 0-29.87 16.43v64.13q9.21 16.83 30.15 16.83 16.2 0 25.34-12.49t9.15-37.9z" fill="#fcfcfc"/><path d="m828.61 1899.3q-32.25 0-52.28-19.44t-20-51.77v-4q0-21.64 8.73-38.67a64.44 64.44 0 0 1 24.5-26.52 66.9 66.9 0 0 1 35.18-9.49q30.85 0 47.68 18.84t16.83 53.3v13.1h-98.75q1.5 17.89 12.5 28.35t27.58 10.42q23.31 0 38-18l18.29 16.7a60.31 60.31 0 0 1 -24.22 20.11q-15.19 7.06-34.04 7.07zm-4.05-123.85q-13.95 0-22.54 9.35t-11 26.06h64.68v-2.41q-1.12-16.29-9.08-24.65t-22.06-8.35z" fill="#fcfcfc"/><path d="m994.61 1781.73a87.82 87.82 0 0 0 -13.82-1.07q-23.31 0-31.41 17.1v98.87h-33.93v-144.56h32.39l.84 16.17q12.29-18.84 34.07-18.84a33.14 33.14 0 0 1 12 1.87z" fill="#fcfcfc"/><path d="m1079.92 1899.3q-32.25 0-52.29-19.44t-20-51.77v-4q0-21.64 8.72-38.67a64.53 64.53 0 0 1 24.51-26.52 66.87 66.87 0 0 1 35.18-9.49q30.85 0 47.68 18.84t16.82 53.3v13.1h-98.74q1.54 17.89 12.5 28.32t27.57 10.42q23.33 0 38-18l18.29 16.7a60.38 60.38 0 0 1 -24.22 20.11q-15.17 7.09-34.02 7.1zm-4.05-123.85q-14 0-22.55 9.35t-11 26.06h64.68v-2.41q-1.11-16.29-9.07-24.65t-22.06-8.35z" fill="#fcfcfc"/><path d="m1198.73 1752.07 1 15.1q15.91-17.76 43.56-17.77 30.29 0 41.46 22.18 16.49-22.17 46.36-22.18 25 0 37.2 13.23t12.5 39v95h-33.93v-94.06q0-13.75-6.28-20.17t-20.8-6.41q-11.6 0-18.92 5.94a31.18 31.18 0 0 0 -10.26 15.57l.14 99.13h-33.93v-95.13q-.7-25.51-27.22-25.51-20.38 0-28.9 15.9v104.74h-33.93v-144.56z" fill="#fcfcfc"/><path d="m1619.53 1851.87 24-99.8h33.09l-41.18 144.56h-27.93l-32.39-99.27-31.83 99.27h-27.92l-41.33-144.56h33.09l24.43 98.73 31-98.73h25.55z" fill="#fcfcfc"/><path d="m1764.17 1823.28q0-33.39 16.2-53.64t43.42-20.24q24 0 38.81 16v-74h33.92v205.21h-30.71l-1.68-15q-15.21 17.64-40.62 17.64-26.54 0-42.93-20.44t-16.41-55.53zm33.93 2.81q0 22 8.86 34.4t25.2 12.36q20.8 0 30.44-17.77v-61.72q-9.36-17.37-30.16-17.37-16.47 0-25.41 12.49t-8.93 37.61z" fill="#fcfcfc"/><path d="m2011 1781.73a88 88 0 0 0 -13.82-1.07q-23.32 0-31.42 17.1v98.87h-33.92v-144.56h32.39l.84 16.17q12.27-18.84 34.06-18.84a33.24 33.24 0 0 1 12 1.87z" fill="#fcfcfc"/><path d="m2021.06 1823q0-21.24 8.8-38.27a62.49 62.49 0 0 1 24.71-26.19q15.91-9.15 36.58-9.15 30.57 0 49.63 18.84t20.59 50l.14 7.62q0 21.38-8.58 38.21a61.88 61.88 0 0 1 -24.57 26q-16 9.23-36.93 9.22-32 0-51.17-20.38t-19.2-54.3zm33.93 2.81q0 22.31 9.63 34.94t26.81 12.62q17.18 0 26.73-12.83t9.57-37.54q0-21.9-9.85-34.73t-26.73-12.83q-16.62 0-26.39 12.63t-9.76 37.75z" fill="#fcfcfc"/><path d="m2183.85 1823.28q0-33.39 16.2-53.64t43.42-20.24q24 0 38.81 16v-74h33.93v205.21h-30.72l-1.67-15q-15.22 17.64-40.63 17.64-26.54 0-42.93-20.44t-16.41-55.53zm33.93 2.81q0 22 8.86 34.4t25.2 12.36q20.8 0 30.44-17.77v-61.72q-9.36-17.37-30.16-17.37-16.47 0-25.41 12.49t-8.93 37.61z" fill="#fcfcfc"/><path d="m2387.83 1870.71h80.42v25.92h-122.58v-21.25l76.64-97.12h-75.25v-26.19h118.26v20.58z" fill="#fcfcfc"/><path d="m2559.7 1899.3q-32.25 0-52.29-19.44t-20-51.77v-4q0-21.64 8.72-38.67a64.51 64.51 0 0 1 24.5-26.52 66.93 66.93 0 0 1 35.19-9.49q30.86 0 47.67 18.84t16.83 53.3v13.1h-98.71q1.53 17.89 12.5 28.32t27.57 10.42q23.31 0 38-18l18.29 16.7a60.41 60.41 0 0 1 -24.23 20.11q-15.2 7.09-34.04 7.1zm-4-123.85q-14 0-22.55 9.35t-11 26.06h64.64v-2.41q-1.11-16.29-9.07-24.65t-22.07-8.35z" fill="#fcfcfc"/><path d="m516.09 900.85s43.62 29.73 62.33 63.13c21.17 37.8 30.2 100 33.48 94.94l-95.81-25.92z" fill="url(#i)"/></svg>